<?xml version="1.0" encoding="UTF-8"?>
<svg width="210px" height="50px" viewBox="0 0 210 50" version="1.1" xmlns="http://www.w3.org/2000/svg" xmlns:xlink="http://www.w3.org/1999/xlink">
    <!-- Generator: Sketch 61.2 (89653) - https://sketch.com -->
    <title>logo</title>
    <desc>Created with Sketch.</desc>
    <g id="onepage" stroke="none" stroke-width="1" fill="none" fill-rule="evenodd">
        <g id="Desktop-HD" transform="translate(-71.000000, -7561.000000)" fill-rule="nonzero">
            <g id="Group-12" transform="translate(71.000000, 7561.000000)">
                <g id="logo">
                    <path d="M27.6750083,20.7845132 C25.7420807,20.7845132 24.1751333,19.2175658 24.1751333,17.2846382 C24.1751333,15.3517107 25.7420807,13.7847632 27.6750083,13.7847632 L30.7125083,13.7847632 C31.5640453,12.5045936 33.0057164,11.7424768 34.5431333,11.7597632 C35.6654414,11.754184 36.7521839,12.1531755 37.6042583,12.8836382 C38.6167583,10.8586382 41.0973833,9.34663825 44.0943833,9.08676325 C37.4243728,0.966715382 26.3711057,-2.0857435 16.4793128,1.46061378 C6.58751989,5.00697107 -0.00852176308,14.386974 1.91846539e-14,24.8952632 C1.91846539e-14,25.0505132 0.0202582635,25.1990132 0.0236332635,25.3508882 C0.910488162,25.1118094 1.82537621,24.9926242 2.74388326,24.9965132 C6.14250826,24.9965132 9.03488326,26.5996382 10.1418833,28.8440132 C10.9944399,28.1147696 12.0811319,27.7169948 13.2030083,27.7235132 C14.7404251,27.7062268 16.1820963,28.4683436 17.0336333,29.7485132 L20.0711333,29.7485132 C21.3480442,29.7088655 22.5452981,30.3674524 23.195474,31.4671545 C23.8456499,32.5668566 23.8456499,33.9332949 23.195474,35.032997 C22.5452981,36.1326991 21.3480442,36.791286 20.0711333,36.7516382 L2.99363326,36.7516382 C8.73516391,47.5263749 21.4555737,52.5312881 32.9998881,48.5577595 C44.5442025,44.5842308 51.4894212,32.8104498 49.3830083,20.7845132 L27.6750083,20.7845132 Z" id="Path" fill="#4878F2"></path>
                    <g id="Group-4" transform="translate(64.800008, 18.584013)" fill="#000000">
                        <path d="M8.92309969,22.9349123 C5.90989969,22.9349123 3.64324969,22.2315623 2.12314969,20.8248623 C1.21040078,19.9911593 0.515233717,18.9470184 0.0981496919,17.7833123 C-0.0908070896,17.2377473 -0.00373658824,16.6344461 0.331771583,16.1645737 C0.667279755,15.6947014 1.20964092,15.4164964 1.78699969,15.4181123 L3.08704969,15.4181123 C3.80906773,15.4216471 4.45793781,15.8595545 4.73134969,16.5278123 C4.95977005,17.0620895 5.32766672,17.5251077 5.79649969,17.8683623 C6.60649969,18.4880123 7.75264969,18.7958123 9.21874969,18.7958123 C10.5147497,18.7958123 11.5150997,18.5730623 12.2197997,18.1194623 C12.8740361,17.7505478 13.2770455,17.0561316 13.2727997,16.3050623 C13.2756394,15.4692059 12.7565029,14.7204201 11.9727497,14.4299123 C10.9713152,13.9820325 9.91207,13.6766645 8.82589969,13.5227123 C7.57432891,13.3243869 6.33347497,13.0635102 5.10799969,12.7410623 C3.89057583,12.4304947 2.79435442,11.7617573 1.96114969,10.8213623 C1.10254969,9.86016225 0.673249692,8.54931225 0.673249692,6.88881225 C0.674533183,4.98719971 1.55515447,3.19306466 3.05869969,2.02881225 C4.64899969,0.678812253 6.75499969,0.00381225338 9.37669969,0.00381225338 C10.7256818,-0.0224217952 12.0668723,0.21417797 13.3254497,0.700412253 C14.3508274,1.08379792 15.2650818,1.71556584 15.9862997,2.53911225 C16.5822651,3.23545102 17.0672203,4.01957577 17.4240497,4.86381225 L17.4240497,4.88811225 C17.6317253,5.4297563 17.5581097,6.03905259 17.2274096,6.51564976 C16.8967095,6.99224693 16.3517211,7.27446815 15.7716497,7.26951225 L14.5242497,7.26951225 C13.8217842,7.26777353 13.1865176,6.85167391 12.9042497,6.20841225 C12.7072324,5.76091378 12.4189277,5.35949424 12.0577997,5.02986225 C11.2753174,4.37024933 10.268482,4.03802267 9.24709969,4.10241225 C8.03479969,4.10241225 7.10599969,4.33461225 6.46069969,4.79901225 C5.82695968,5.23522597 5.46147666,5.96619201 5.49274969,6.73491225 C5.49274969,7.49226225 5.92204969,8.07141225 6.78064969,8.46426225 C7.79100649,8.90037706 8.85678935,9.1947621 9.94774969,9.33906225 C11.2019291,9.53555953 12.4433948,9.80603137 13.6656497,10.1490623 C14.8921272,10.497231 15.9874512,11.2020727 16.8124997,12.1740623 C17.6764997,13.1622623 18.1071497,14.4731123 18.1044497,16.1066123 C18.1268268,18.0258696 17.2408787,19.8428141 15.7149497,21.0071123 C14.1165497,22.2923123 11.8525997,22.9349123 8.92309969,22.9349123 Z" id="Path"></path>
                        <path d="M32.5386497,22.9349123 C29.1609497,22.9349123 26.4217997,21.8225123 24.3211997,19.5977123 C22.2429055,17.4197526 21.1114981,14.507507 21.1743497,11.4977123 C21.1117333,8.47833543 22.2424982,5.55610143 24.3211997,3.36531225 C26.4190997,1.12971225 29.1582497,0.0105622534 32.5386497,0.00785737974 C35.9190497,0.00516225338 38.6730497,1.12431225 40.8006497,3.36531225 C42.8857401,5.55186117 44.023854,8.47282619 43.9677497,11.4936623 C44.0306013,14.503457 42.8991939,17.4157026 40.8208997,19.5936623 C38.7067997,21.8211623 35.9460497,22.9349123 32.5386497,22.9349123 Z M26.2044406,11.4936623 C26.2044406,13.5807623 26.8024997,15.2709623 27.9985997,16.5642623 C29.1914502,17.8061093 30.8389849,18.5080419 32.5609247,18.5080419 C34.2828644,18.5080419 35.9303992,17.8061093 37.1232497,16.5642623 C38.3220497,15.2682623 38.9200997,13.5780623 38.9174088,11.4936623 C38.9146997,9.40926225 38.3166497,7.70556225 37.1232497,6.38256225 C35.9303992,5.14071518 34.2828644,4.43878262 32.5609247,4.43878262 C30.8389849,4.43878262 29.1914502,5.14071518 27.9985997,6.38256225 C26.7997997,7.67856225 26.2017497,9.38226225 26.2044406,11.4936623 Z" id="Shape"></path>
                        <path d="M67.6885997,9.84936225 L67.6885997,19.9257623 C67.6863698,21.3116246 66.563462,22.4345324 65.1775997,22.4367623 L65.1775997,22.4367623 C63.790156,22.4367641 62.6647839,21.3132041 62.6625497,19.9257623 L62.6625497,9.29856225 C62.6625497,5.97756225 61.2828497,4.31571225 58.5234497,4.31301225 C57.1803706,4.25026487 55.8764663,4.77507893 54.9513497,5.75076225 C54.0657497,6.70656225 53.6229497,8.01606225 53.6229497,9.67926225 L53.6229497,19.9257623 C53.6207155,21.3132041 52.4953434,22.4367641 51.1078997,22.4367623 L51.1078997,22.4367623 C49.720456,22.4367641 48.5950839,21.3132041 48.5928497,19.9257623 L48.5928497,2.83476225 C48.5928497,1.5508659 49.6336533,0.510062253 50.9175497,0.510062253 L50.9175497,0.510062253 C52.201446,0.510062253 53.2422497,1.5508659 53.2422497,2.83476225 L53.2422497,3.42606225 C53.821389,2.40721452 54.668881,1.56672656 55.6924997,0.996062253 C56.9463093,0.309063606 58.3623156,-0.0267481483 59.7910997,0.0240622534 C62.8312997,0.0240622534 65.0277497,1.17831225 66.3804497,3.48681225 C68.2407497,1.17831225 70.7193497,0.0240622534 73.8162497,0.0240622534 C76.3785497,0.0240622534 78.3495497,0.819212253 79.7292497,2.40951225 C81.1089497,3.99981225 81.7987997,6.09231225 81.7987997,8.68701225 L81.7987997,19.9460123 C81.7987997,21.3327993 80.6745867,22.4570123 79.2877997,22.4570123 L79.2877997,22.4570123 C77.900356,22.4570123 76.7749839,21.3334541 76.7727497,19.9460123 L76.7727497,9.29856225 C76.7727497,5.96946225 75.3930497,4.30491225 72.6336497,4.30491225 C71.2739883,4.23810676 69.9534499,4.77105947 69.0210497,5.76291225 C68.1354497,6.74031225 67.6912997,8.10246225 67.6885997,9.84936225 Z" id="Path"></path>
                        <path d="M92.3206997,2.83476225 L92.3206997,3.42606225 C92.9070722,2.39180906 93.7787821,1.5482189 94.8316997,0.996062253 C96.1374858,0.301540836 97.6018138,-0.0404614136 99.0801497,0.00381225338 C101.66945,0.00381225338 103.67555,0.792212253 105.09845,2.36901225 C106.52135,3.94581225 107.2328,6.04506225 107.2328,8.66676225 L107.2328,19.9257623 C107.230565,21.3132041 106.105193,22.4367641 104.71775,22.4367623 L104.71775,22.4367623 C103.331887,22.4345324 102.20898,21.3116246 102.20675,19.9257623 L102.20675,9.29856225 C102.20675,7.75146225 101.84765,6.53646225 101.12945,5.65356225 C100.40855,4.76661225 99.3190997,4.32111225 97.8529997,4.32111225 C96.2329997,4.32111225 94.9855997,4.79901225 94.0743497,5.75886225 C93.1630997,6.71871225 92.7013997,8.03901225 92.7013997,9.72786225 L92.7013997,19.9338623 C92.6991655,21.3213041 91.5737934,22.4448623 90.1863497,22.4448623 L90.1863497,22.4448623 C88.798906,22.4448623 87.6735339,21.3213041 87.6712997,19.9338623 L87.6712997,2.83476225 C87.6712997,1.5508659 88.7121033,0.510062253 89.9959997,0.510062253 L89.9959997,0.510062253 C91.279896,0.510062253 92.3206997,1.5508659 92.3206997,2.83476225 L92.3206997,2.83476225 Z" id="Path"></path>
                        <path d="M113.1458,19.9257623 L113.1458,3.02511225 C113.1458,1.6392456 114.26689,0.514525592 115.65275,0.510062253 L115.65275,0.510062253 C117.041773,0.510062253 118.1678,1.63608849 118.1678,3.02511225 L118.1678,19.9257623 C118.165565,21.3132041 117.040193,22.4367623 115.65275,22.4367623 L115.65275,22.4367623 C114.268469,22.4323058 113.148022,21.3100481 113.1458,19.9257623 L113.1458,19.9257623 Z" id="Path"></path>
                        <path d="M142.6784,0.554612253 L142.6784,0.554612253 C143.960716,0.554610307 145.000866,1.5929478 145.0031,2.87526225 L145.0031,20.0999123 C145.000866,21.3822267 143.960716,22.4205642 142.6784,22.4205623 L142.6784,22.4205623 C141.397665,22.4183329 140.359979,21.3806473 140.35775,20.0999123 L140.35775,19.2899123 C138.86735,21.7199123 136.4036,22.9349123 132.9665,22.9349123 C129.8399,22.9349123 127.36805,21.8441123 125.55095,19.6625123 C123.73385,17.4809123 122.82395,14.7579623 122.82125,11.4936623 C122.82125,8.22936225 123.7298,5.50506225 125.5469,3.32076225 C127.364,1.13646225 129.83585,0.0456622534 132.96245,0.0483572534 C136.39685,0.0483572534 138.8606,1.26336225 140.3537,3.69336225 L140.3537,2.88336225 C140.352624,2.26611207 140.597073,1.67377454 141.033155,1.23693239 C141.469237,0.800090234 142.061149,0.554611317 142.6784,0.554612253 Z M129.5402,6.48786225 C128.390109,7.89715303 127.790072,9.67568156 127.85135,11.4936623 C127.789453,13.3129674 128.389505,15.0929789 129.5402,16.5035123 C130.68666,17.7729116 132.317118,18.4973586 134.0276,18.4973586 C135.738081,18.4973586 137.368539,17.7729116 138.515,16.5035123 C139.662247,15.0841212 140.256457,13.2971757 140.18765,11.4734123 C140.255838,9.65097294 139.661643,7.86551059 138.515,6.44736225 C137.368539,5.17796287 135.738081,4.45351591 134.0276,4.45351591 C132.317118,4.45351591 130.68666,5.17796287 129.5402,6.44736225 L129.5402,6.48786225 Z" id="Shape"></path>
                    </g>
                </g>
            </g>
        </g>
    </g>
</svg>