<?xml version="1.0" encoding="UTF-8"?>
<svg width="23px" height="27px" viewBox="0 0 23 27" version="1.1" xmlns="http://www.w3.org/2000/svg" xmlns:xlink="http://www.w3.org/1999/xlink">
    <!-- Generator: Sketch 61.2 (89653) - https://sketch.com -->
    <title>Group 3</title>
    <desc>Created with Sketch.</desc>
    <defs>
        <polygon id="path-1" points="0 0 22.2603302 0 22.2603302 27.0172245 0 27.0172245"></polygon>
    </defs>
    <g id="onepage" stroke="none" stroke-width="1" fill="none" fill-rule="evenodd">
        <g id="Desktop-HD" transform="translate(-573.000000, -1884.000000)">
            <g id="Group-3" transform="translate(573.000000, 1884.000000)">
                <mask id="mask-2" fill="white">
                    <use xlink:href="#path-1"></use>
                </mask>
                <g id="Clip-2"></g>
                <path d="M11.1308265,25.9972245 C9.6974715,25.9972245 8.4599565,25.0611195 8.0216115,23.7573045 L11.1300615,23.7573045 L14.2397865,23.7573045 C13.8014415,25.0611195 12.5641815,25.9972245 11.1308265,25.9972245 M10.0524315,1.8436245 C10.0524315,1.2489645 10.5361665,0.7649745 11.1308265,0.7649745 C11.7257415,0.7649745 12.2094765,1.2489645 12.2094765,1.8436245 C12.2094765,1.8530595 12.2069265,1.8617295 12.2066715,1.8711645 C11.8389615,1.7564145 11.6079315,1.7026095 11.5951815,1.6998045 C11.2889265,1.6319745 10.9714515,1.6319745 10.6649415,1.6998045 C10.6524465,1.7026095 10.4219265,1.7561595 10.0549815,1.8706545 C10.0547265,1.8614745 10.0524315,1.8530595 10.0524315,1.8436245 M21.9507315,22.1115345 L18.7239615,18.8847645 L18.7145265,18.7554795 L18.7145265,8.8928445 C18.7145265,4.8694545 15.0154965,2.9092695 12.9502515,2.1282045 C12.9645315,2.0351295 12.9744765,1.9405245 12.9744765,1.8436245 C12.9744765,0.8269395 12.1475115,-2.55e-05 11.1308265,-2.55e-05 C10.1143965,-2.55e-05 9.2874315,0.8269395 9.2874315,1.8436245 C9.2874315,1.9405245 9.2971215,2.0348745 9.3111465,2.1279495 C7.2461565,2.9085045 3.5455965,4.8686895 3.5455965,8.8928445 L3.5455965,18.8686995 C3.5455965,18.8732895 3.5438115,18.8773695 3.5407515,18.8804295 L0.3099015,22.1112795 C0.0625515,22.3588845 -0.0618885,22.7199645 0.0304215,23.0580945 C0.1446615,23.4775695 0.5187465,23.7573045 0.9423015,23.7573045 L6.9595365,23.7573045 C7.4284815,25.6335945 9.1354515,27.0172245 11.1308265,27.0172245 C13.1262015,27.0172245 14.8331715,25.6335945 15.3018615,23.7573045 L21.3178215,23.7573045 C21.7416315,23.7573045 22.1154615,23.4775695 22.2297015,23.0583495 C22.3222665,22.7202195 22.1980815,22.3591395 21.9507315,22.1115345" id="Fill-1" fill="#FEFEFE" mask="url(#mask-2)"></path>
            </g>
        </g>
    </g>
</svg>