<?xml version="1.0" encoding="UTF-8"?>
<svg width="43px" height="11px" viewBox="0 0 43 11" version="1.1" xmlns="http://www.w3.org/2000/svg" xmlns:xlink="http://www.w3.org/1999/xlink">
    <!-- Generator: Sketch 61.2 (89653) - https://sketch.com -->
    <title>+1639</title>
    <desc>Created with Sketch.</desc>
    <g id="onepage" stroke="none" stroke-width="1" fill="none" fill-rule="evenodd">
        <g id="Desktop-HD" transform="translate(-745.000000, -1451.000000)" fill="#FFFFFF" fill-rule="nonzero">
            <path d="M749.776044,1461.8033 L749.776044,1458.7923 L752.882033,1458.7923 L752.882033,1457.17331 L749.776044,1457.17331 L749.776044,1454.16231 L748.105989,1454.16231 L748.105989,1457.17331 L745,1457.17331 L745,1458.7923 L748.105989,1458.7923 L748.105989,1461.8033 L749.776044,1461.8033 Z M759.733938,1461.8033 L759.733938,1451.21183 L757.970236,1451.21183 C757.907804,1451.61531 757.777737,1451.95323 757.580036,1452.22558 C757.382335,1452.49794 757.140411,1452.71733 756.854265,1452.88377 C756.568119,1453.05021 756.245554,1453.16621 755.88657,1453.23177 C755.527586,1453.29734 755.155596,1453.32508 754.770599,1453.31499 L754.770599,1454.93398 L757.517604,1454.93398 L757.517604,1461.8033 L759.733938,1461.8033 Z M766.819964,1462 C767.392257,1462 767.912523,1461.90165 768.380762,1461.70495 C768.849002,1461.50825 769.252208,1461.2359 769.590381,1460.8879 C769.928554,1460.53989 770.188687,1460.13136 770.37078,1459.66231 C770.552874,1459.19326 770.64392,1458.68638 770.64392,1458.14168 C770.64392,1457.71802 770.576286,1457.2994 770.441016,1456.88583 C770.305747,1456.47226 770.092438,1456.10408 769.801089,1455.78129 C769.488929,1455.44842 769.109135,1455.18363 768.661706,1454.98693 C768.214277,1454.79023 767.756443,1454.69188 767.288203,1454.69188 C766.757532,1454.69188 766.289292,1454.78267 765.883485,1454.96424 C765.477677,1455.1458 765.123896,1455.44842 764.822142,1455.87208 L764.790926,1455.84182 C764.801331,1455.54929 764.842952,1455.21641 764.915789,1454.84319 C764.988627,1454.46997 765.103085,1454.11944 765.259165,1453.79161 C765.415245,1453.46378 765.625953,1453.18638 765.891289,1452.95942 C766.156624,1452.73246 766.486993,1452.61898 766.882396,1452.61898 C767.267393,1452.61898 767.589958,1452.75011 767.850091,1453.01238 C768.110224,1453.27464 768.276709,1453.5823 768.349546,1453.93535 L770.456624,1453.93535 C770.394192,1453.46126 770.264126,1453.04264 770.066425,1452.6795 C769.868724,1452.31637 769.613793,1452.01123 769.301633,1451.7641 C768.989474,1451.51696 768.63049,1451.32783 768.224682,1451.1967 C767.818875,1451.06557 767.381851,1451 766.913612,1451 C766.133212,1451 765.472474,1451.16644 764.931397,1451.49931 C764.390321,1451.83219 763.948094,1452.26341 763.604719,1452.79298 C763.261343,1453.32256 763.011615,1453.91518 762.855535,1454.57084 C762.699456,1455.2265 762.621416,1455.88216 762.621416,1456.53783 C762.621416,1457.21366 762.683848,1457.87689 762.808711,1458.52751 C762.933575,1459.17813 763.15729,1459.76066 763.479855,1460.2751 C763.80242,1460.78955 764.234241,1461.20564 764.775318,1461.52338 C765.316394,1461.84113 765.997943,1462 766.819964,1462 Z M766.757532,1460.24484 C766.476588,1460.24484 766.22686,1460.18936 766.008348,1460.0784 C765.789837,1459.96745 765.605142,1459.81866 765.454265,1459.63205 C765.303388,1459.44544 765.188929,1459.23361 765.110889,1458.99656 C765.032849,1458.75951 764.993829,1458.51994 764.993829,1458.27785 C764.993829,1458.01559 765.030248,1457.76593 765.103085,1457.52889 C765.175923,1457.29184 765.285178,1457.08253 765.430853,1456.90096 C765.576528,1456.71939 765.761222,1456.57565 765.984936,1456.46974 C766.208651,1456.36382 766.466183,1456.31087 766.757532,1456.31087 C767.038475,1456.31087 767.285602,1456.36887 767.498911,1456.48487 C767.71222,1456.60087 767.886509,1456.75218 768.021779,1456.93879 C768.157048,1457.1254 768.2585,1457.33723 768.326134,1457.57428 C768.393769,1457.81133 768.427586,1458.05594 768.427586,1458.30812 C768.427586,1458.55021 768.391168,1458.78725 768.31833,1459.01926 C768.245493,1459.25126 768.136237,1459.45805 767.990563,1459.63961 C767.844888,1459.82118 767.670599,1459.96745 767.467695,1460.0784 C767.264791,1460.18936 767.02807,1460.24484 766.757532,1460.24484 Z M775.310708,1462 C775.841379,1462 776.35124,1461.92435 776.84029,1461.77304 C777.329341,1461.62173 777.761162,1461.39982 778.135753,1461.10729 C778.510345,1460.81476 778.809498,1460.45163 779.033212,1460.01788 C779.256927,1459.58414 779.368784,1459.08987 779.368784,1458.53508 C779.368784,1457.92985 779.197096,1457.41036 778.853721,1456.97662 C778.510345,1456.54287 778.036903,1456.26043 777.433394,1456.1293 L777.433394,1456.09904 C777.943255,1455.95782 778.32565,1455.69051 778.580581,1455.29711 C778.835511,1454.90371 778.962976,1454.44979 778.962976,1453.93535 C778.962976,1453.46126 778.853721,1453.04264 778.635209,1452.6795 C778.416697,1452.31637 778.133152,1452.00871 777.784574,1451.75653 C777.435995,1451.50436 777.043194,1451.31522 776.606171,1451.18913 C776.169147,1451.06304 775.732123,1451 775.2951,1451 C774.733212,1451 774.223351,1451.08826 773.765517,1451.26479 C773.307683,1451.44131 772.914882,1451.69097 772.587114,1452.01376 C772.259347,1452.33654 772.004416,1452.72238 771.822323,1453.17125 C771.64023,1453.62013 771.538778,1454.11692 771.517967,1454.66162 L773.625045,1454.66162 C773.61464,1454.11692 773.752511,1453.66552 774.038657,1453.30743 C774.324803,1452.94934 774.74882,1452.77029 775.310708,1452.77029 C775.716515,1452.77029 776.075499,1452.89133 776.387659,1453.13343 C776.699819,1453.37552 776.855898,1453.72352 776.855898,1454.17744 C776.855898,1454.48006 776.78046,1454.72215 776.629583,1454.90371 C776.478705,1455.08528 776.286207,1455.22398 776.052087,1455.31981 C775.817967,1455.41564 775.565638,1455.47364 775.2951,1455.49381 C775.024561,1455.51398 774.769631,1455.51398 774.530309,1455.49381 L774.530309,1457.00688 C774.800847,1457.00688 775.084392,1457.01444 775.380944,1457.02957 C775.677495,1457.0447 775.950635,1457.10018 776.200363,1457.19601 C776.450091,1457.29184 776.655596,1457.44567 776.816878,1457.6575 C776.978161,1457.86933 777.058802,1458.17698 777.058802,1458.58047 C777.058802,1459.09491 776.887114,1459.50092 776.543739,1459.79849 C776.200363,1460.09606 775.778947,1460.24484 775.279492,1460.24484 C774.956927,1460.24484 774.678584,1460.18936 774.444465,1460.0784 C774.210345,1459.96745 774.015245,1459.81866 773.859165,1459.63205 C773.703085,1459.44544 773.583424,1459.22352 773.500181,1458.9663 C773.416939,1458.70908 773.370115,1458.43925 773.35971,1458.15681 L771.252632,1458.15681 C771.242226,1458.77212 771.333273,1459.31683 771.525771,1459.79092 C771.71827,1460.26502 771.99141,1460.66598 772.345191,1460.99381 C772.698972,1461.32164 773.128191,1461.5713 773.632849,1461.74278 C774.137508,1461.91426 774.696794,1462 775.310708,1462 Z M783.707804,1462 C784.488203,1462 785.148941,1461.83608 785.690018,1461.50825 C786.231095,1461.18042 786.673321,1460.75172 787.016697,1460.22215 C787.360073,1459.69257 787.6098,1459.09995 787.76588,1458.44429 C787.92196,1457.78863 788,1457.13297 788,1456.4773 C788,1455.81155 787.937568,1455.15085 787.812704,1454.49519 C787.68784,1453.83952 787.464126,1453.25195 787.141561,1452.73246 C786.818996,1452.21298 786.389776,1451.79436 785.853902,1451.47662 C785.318028,1451.15887 784.633878,1451 783.801452,1451 C783.229159,1451 782.708893,1451.10087 782.240653,1451.30261 C781.772414,1451.50436 781.369208,1451.77923 781.031034,1452.12724 C780.692861,1452.47524 780.432728,1452.88377 780.250635,1453.35282 C780.068542,1453.82187 779.977495,1454.32875 779.977495,1454.87345 C779.977495,1455.29711 780.04513,1455.71573 780.180399,1456.1293 C780.315668,1456.54287 780.528978,1456.91105 780.820327,1457.23384 C781.132486,1457.56671 781.512281,1457.8315 781.95971,1458.0282 C782.407139,1458.2249 782.864973,1458.32325 783.333212,1458.32325 C783.863884,1458.32325 784.332123,1458.23246 784.737931,1458.05089 C785.143739,1457.86933 785.49752,1457.56671 785.799274,1457.14305 L785.83049,1457.17331 C785.809679,1457.46584 785.765457,1457.79872 785.697822,1458.17194 C785.630188,1458.54516 785.51833,1458.89569 785.36225,1459.22352 C785.206171,1459.55135 784.998064,1459.82875 784.737931,1460.05571 C784.477798,1460.28267 784.144828,1460.39615 783.73902,1460.39615 C783.354023,1460.39615 783.031458,1460.26502 782.771325,1460.00275 C782.511192,1459.74049 782.344707,1459.43283 782.271869,1459.07978 L780.164791,1459.07978 C780.227223,1459.54379 780.35729,1459.95736 780.554991,1460.3205 C780.752692,1460.68363 781.007623,1460.99129 781.319782,1461.24347 C781.631942,1461.49564 781.990926,1461.68478 782.396733,1461.81087 C782.802541,1461.93696 783.239564,1462 783.707804,1462 Z M783.863884,1456.70426 C783.58294,1456.70426 783.335814,1456.64626 783.122505,1456.53026 C782.909195,1456.41426 782.734906,1456.26295 782.599637,1456.07634 C782.464368,1455.88973 782.362916,1455.6779 782.295281,1455.44085 C782.227647,1455.20381 782.193829,1454.95919 782.193829,1454.70702 C782.193829,1454.46492 782.230248,1454.22788 782.303085,1453.99587 C782.375923,1453.76387 782.485178,1453.55708 782.630853,1453.37552 C782.776528,1453.19395 782.953418,1453.04768 783.161525,1452.93673 C783.369631,1452.82577 783.603751,1452.77029 783.863884,1452.77029 C784.144828,1452.77029 784.394555,1452.82577 784.613067,1452.93673 C784.831579,1453.04768 785.016273,1453.19647 785.167151,1453.38308 C785.318028,1453.56969 785.432486,1453.78152 785.510526,1454.01857 C785.588566,1454.25562 785.627586,1454.49519 785.627586,1454.73728 C785.627586,1454.99954 785.591168,1455.2492 785.51833,1455.48624 C785.445493,1455.72329 785.336237,1455.9326 785.190563,1456.11417 C785.044888,1456.29574 784.862795,1456.43948 784.644283,1456.54539 C784.425771,1456.65131 784.165638,1456.70426 783.863884,1456.70426 Z" id="+1639"></path>
        </g>
    </g>
</svg>