<?xml version="1.0" encoding="UTF-8"?>
<svg width="143px" height="78px" viewBox="0 0 143 78" version="1.1" xmlns="http://www.w3.org/2000/svg" xmlns:xlink="http://www.w3.org/1999/xlink">
    <!-- Generator: Sketch 61.2 (89653) - https://sketch.com -->
    <title>Group 17</title>
    <desc>Created with Sketch.</desc>
    <g id="onepage" stroke="none" stroke-width="1" fill="none" fill-rule="evenodd">
        <g id="Desktop-HD-Copy" transform="translate(-1228.000000, -446.000000)">
            <g id="Group-17" transform="translate(1228.000000, 446.000000)">
                <rect id="Rectangle-Copy-2" fill="#F2D448" x="0" y="4" width="140" height="64" rx="5"></rect>
                <polygon id="Path-14-Copy" fill="#F2D448" transform="translate(22.018987, 67.511673) scale(-1, 1) translate(-22.018987, -67.511673) " points="9 62.2984122 35.0379745 78.0233459 35.0379745 57"></polygon>
                <circle id="Oval-Copy-10" fill="#FF0000" cx="135" cy="8" r="8"></circle>
                <text id="Snapchat" font-family="HelveticaNeue-Medium, Helvetica Neue" font-size="20" font-weight="400" fill="#FFFFFF">
                    <tspan x="25.92" y="44">Snapchat</tspan>
                </text>
                <path d="M133.376,10.712 L133.376,5.112 L132.632,5.112 C132.6,5.28266667 132.532,5.42666667 132.428,5.544 C132.324,5.66133333 132.198667,5.75733333 132.052,5.832 C131.905333,5.90666667 131.741333,5.96 131.56,5.992 C131.378667,6.024 131.192,6.04 131,6.04 L131,6.04 L131,6.76 L132.376,6.76 L132.376,10.712 L133.376,10.712 Z M137.248,10.824 C137.648,10.824 137.974667,10.732 138.228,10.548 C138.481333,10.364 138.678667,10.1293333 138.82,9.844 C138.961333,9.55866667 139.057333,9.24533333 139.108,8.904 C139.158667,8.56266667 139.184,8.232 139.184,7.912 C139.184,7.592 139.158667,7.26133333 139.108,6.92 C139.057333,6.57866667 138.961333,6.26533333 138.82,5.98 C138.678667,5.69466667 138.481333,5.46 138.228,5.276 C137.974667,5.092 137.648,5 137.248,5 C136.848,5 136.521333,5.092 136.268,5.276 C136.014667,5.46 135.817333,5.69466667 135.676,5.98 C135.534667,6.26533333 135.438667,6.57866667 135.388,6.92 C135.337333,7.26133333 135.312,7.592 135.312,7.912 C135.312,8.232 135.337333,8.56266667 135.388,8.904 C135.438667,9.24533333 135.534667,9.55866667 135.676,9.844 C135.817333,10.1293333 136.014667,10.364 136.268,10.548 C136.521333,10.732 136.848,10.824 137.248,10.824 Z M137.248,10.064 C137.045333,10.064 136.878667,10.0066667 136.748,9.892 C136.617333,9.77733333 136.513333,9.62266667 136.436,9.428 C136.358667,9.23333333 136.304,9.00533333 136.272,8.744 C136.24,8.48266667 136.224,8.20533333 136.224,7.912 C136.224,7.61866667 136.24,7.34266667 136.272,7.084 C136.304,6.82533333 136.358667,6.59733333 136.436,6.4 C136.513333,6.20266667 136.617333,6.04666667 136.748,5.932 C136.878667,5.81733333 137.045333,5.76 137.248,5.76 C137.445333,5.76 137.610667,5.81733333 137.744,5.932 C137.877333,6.04666667 137.982667,6.20266667 138.06,6.4 C138.137333,6.59733333 138.192,6.82533333 138.224,7.084 C138.256,7.34266667 138.272,7.61866667 138.272,7.912 C138.272,8.20533333 138.256,8.48266667 138.224,8.744 C138.192,9.00533333 138.137333,9.23333333 138.06,9.428 C137.982667,9.62266667 137.877333,9.77733333 137.744,9.892 C137.610667,10.0066667 137.445333,10.064 137.248,10.064 Z" id="10" fill="#FFFFFF" fill-rule="nonzero"></path>
            </g>
        </g>
    </g>
</svg>