<?xml version="1.0" encoding="UTF-8"?>
<svg width="143px" height="78px" viewBox="0 0 143 78" version="1.1" xmlns="http://www.w3.org/2000/svg" xmlns:xlink="http://www.w3.org/1999/xlink">
    <!-- Generator: Sketch 61.2 (89653) - https://sketch.com -->
    <title>Group 18</title>
    <desc>Created with Sketch.</desc>
    <g id="onepage" stroke="none" stroke-width="1" fill="none" fill-rule="evenodd">
        <g id="Desktop-HD-Copy" transform="translate(-782.000000, -292.000000)">
            <g id="Group-18" transform="translate(782.000000, 292.000000)">
                <rect id="Rectangle" fill="#48ADF2" x="0" y="4" width="140" height="64" rx="5"></rect>
                <polygon id="Path-14" fill="#48ADF2" points="96 62.2984122 122.037975 78.0233459 122.037975 57"></polygon>
                <circle id="Oval" fill="#FF0000" cx="135" cy="8" r="8"></circle>
                <text id="twitter" font-family="HelveticaNeue-Medium, Helvetica Neue" font-size="20" font-weight="400" fill="#FFFFFF">
                    <tspan x="41.24" y="44">twitter</tspan>
                </text>
                <path d="M134.968,10.824 C135.234667,10.824 135.488,10.784 135.728,10.704 C135.968,10.624 136.178667,10.5106667 136.36,10.364 C136.541333,10.2173333 136.685333,10.0386667 136.792,9.828 C136.898667,9.61733333 136.952,9.37866667 136.952,9.112 C136.952,8.74933333 136.862667,8.44133333 136.684,8.188 C136.505333,7.93466667 136.256,7.776 135.936,7.712 L135.936,7.712 L135.936,7.696 C136.208,7.6 136.408,7.44666667 136.536,7.236 C136.664,7.02533333 136.728,6.77866667 136.728,6.496 C136.728,6.25066667 136.677333,6.03333333 136.576,5.844 C136.474667,5.65466667 136.34,5.49866667 136.172,5.376 C136.004,5.25333333 135.814667,5.16 135.604,5.096 C135.393333,5.032 135.178667,5 134.96,5 C134.677333,5 134.424,5.048 134.2,5.144 C133.976,5.24 133.785333,5.37333333 133.628,5.544 C133.470667,5.71466667 133.346667,5.916 133.256,6.148 C133.165333,6.38 133.114667,6.632 133.104,6.904 L133.104,6.904 L134.016,6.904 C134.010667,6.76 134.026667,6.62 134.064,6.484 C134.101333,6.348 134.158667,6.22533333 134.236,6.116 C134.313333,6.00666667 134.410667,5.92 134.528,5.856 C134.645333,5.792 134.784,5.76 134.944,5.76 C135.2,5.76 135.409333,5.832 135.572,5.976 C135.734667,6.12 135.816,6.312 135.816,6.552 C135.816,6.72266667 135.78,6.86666667 135.708,6.984 C135.636,7.10133333 135.541333,7.19333333 135.424,7.26 C135.306667,7.32666667 135.173333,7.37333333 135.024,7.4 C134.874667,7.42666667 134.725333,7.43733333 134.576,7.432 L134.576,7.432 L134.576,8.112 C134.757333,8.10666667 134.934667,8.112 135.108,8.128 C135.281333,8.144 135.437333,8.18533333 135.576,8.252 C135.714667,8.31866667 135.826667,8.416 135.912,8.544 C135.997333,8.672 136.04,8.84533333 136.04,9.064 C136.04,9.384 135.937333,9.63066667 135.732,9.804 C135.526667,9.97733333 135.272,10.064 134.968,10.064 C134.610667,10.064 134.342667,9.95066667 134.164,9.724 C133.985333,9.49733333 133.901333,9.21333333 133.912,8.872 L133.912,8.872 L133,8.872 C133.005333,9.16533333 133.050667,9.432 133.136,9.672 C133.221333,9.912 133.345333,10.1173333 133.508,10.288 C133.670667,10.4586667 133.873333,10.5906667 134.116,10.684 C134.358667,10.7773333 134.642667,10.824 134.968,10.824 Z" id="3" fill="#FFFFFF" fill-rule="nonzero"></path>
            </g>
        </g>
    </g>
</svg>